{
  "accessors": [
    {
      "name": "ズボン.001_Mesh_0002.rip_mesh0000.010-Mesh_0_positions",
      "componentType": 5126,
      "count": 129,
      "min": [
        -0.16255000233650208,
        -0.00027799999224953353,
        -0.07749799638986588
      ],
      "max": [
        0.16210900247097015,
        0.6354389786720276,
        0.17883899807929993
      ],
      "type": "VEC3",
      "bufferView": 0,
      "byteOffset": 0
    },
    {
      "name": "ズボン.001_Mesh_0002.rip_mesh0000.010-Mesh_0_normals",
      "componentType": 5126,
      "count": 129,
      "min": [
        -0.9930439591407776,
        -0.9999433755874634,
        -0.999961256980896
      ],
      "max": [
        0.9936317205429077,
        0.9289849996566772,
        0.9936174750328064
      ],
      "type": "VEC3",
      "bufferView": 1,
      "byteOffset": 0
    },
    {
      "name": "ズボン.001_Mesh_0002.rip_mesh0000.010-Mesh_0_texcoords",
      "componentType": 5126,
      "count": 129,
      "min": [
        0,
        0
      ],
      "max": [
        0,
        0
      ],
      "type": "VEC2",
      "bufferView": 2,
      "byteOffset": 0
    },
    {
      "name": "ズボン.001_Mesh_0002.rip_mesh0000.010-Mesh_0_indices",
      "componentType": 5123,
      "count": 705,
      "min": [
        0
      ],
      "max": [
        128
      ],
      "type": "SCALAR",
      "bufferView": 3,
      "byteOffset": 0
    },
    {
      "name": "シャツ.001_Mesh_0002.rip_mesh0000.011-Mesh_0_positions",
      "componentType": 5126,
      "count": 229,
      "min": [
        -0.7099440097808838,
        0.5351420044898987,
        -0.18270699679851532
      ],
      "max": [
        0.7126420140266418,
        1.2490040063858032,
        0.23478400707244873
      ],
      "type": "VEC3",
      "bufferView": 0,
      "byteOffset": 1548
    },
    {
      "name": "シャツ.001_Mesh_0002.rip_mesh0000.011-Mesh_0_normals",
      "componentType": 5126,
      "count": 229,
      "min": [
        -0.9997667074203491,
        -0.9997063279151917,
        -1
      ],
      "max": [
        0.9997667074203491,
        0.999007523059845,
        1
      ],
      "type": "VEC3",
      "bufferView": 1,
      "byteOffset": 1548
    },
    {
      "name": "シャツ.001_Mesh_0002.rip_mesh0000.011-Mesh_0_texcoords",
      "componentType": 5126,
      "count": 229,
      "min": [
        0,
        0
      ],
      "max": [
        0.95830899477005,
        0.6249759793281555
      ],
      "type": "VEC2",
      "bufferView": 2,
      "byteOffset": 1032
    },
    {
      "name": "シャツ.001_Mesh_0002.rip_mesh0000.011-Mesh_0_indices",
      "componentType": 5123,
      "count": 1236,
      "min": [
        0
      ],
      "max": [
        228
      ],
      "type": "SCALAR",
      "bufferView": 3,
      "byteOffset": 1412
    }
  ],
  "asset": {
    "generator": "obj2gltf",
    "version": "2.0"
  },
  "buffers": [
    {
      "name": "Female",
      "byteLength": 15580,
      "uri": "data:application/octet-stream;base64,"
    }
  ],
  "bufferViews": [
    {
      "name": "bufferView_0",
      "buffer": 0,
      "byteLength": 4296,
      "byteOffset": 0,
      "byteStride": 12,
      "target": 34962
    },
    {
      "name": "bufferView_1",
      "buffer": 0,
      "byteLength": 4296,
      "byteOffset": 4296,
      "byteStride": 12,
      "target": 34962
    },
    {
      "name": "bufferView_2",
      "buffer": 0,
      "byteLength": 2864,
      "byteOffset": 8592,
      "byteStride": 8,
      "target": 34962
    },
    {
      "name": "bufferView_3",
      "buffer": 0,
      "byteLength": 3884,
      "byteOffset": 11456,
      "target": 34963
    },
    {
      "buffer": 0,
      "byteOffset": 15340,
      "byteLength": 119
    },
    {
      "buffer": 0,
      "byteOffset": 15459,
      "byteLength": 119
    }
  ],
  "images": [
    {
      "name": "pants",
      "mimeType": "image/png",
      "bufferView": 4
    },
    {
      "name": "shirt",
      "mimeType": "image/png",
      "bufferView": 5
    }
  ],
  "materials": [
    {
      "name": "Material.001",
      "pbrMetallicRoughness": {
        "baseColorTexture": {
          "index": 0
        },
        "baseColorFactor": [
          1,
          1,
          1,
          1
        ],
        "metallicFactor": 0,
        "roughnessFactor": 0.75
      },
      "emissiveFactor": [
        0,
        0,
        0
      ],
      "alphaMode": "OPAQUE",
      "doubleSided": false
    },
    {
      "name": "Material.002",
      "pbrMetallicRoughness": {
        "baseColorTexture": {
          "index": 1
        },
        "baseColorFactor": [
          1,
          1,
          1,
          1
        ],
        "metallicFactor": 0,
        "roughnessFactor": 0.75
      },
      "emissiveFactor": [
        0,
        0,
        0
      ],
      "alphaMode": "OPAQUE",
      "doubleSided": false
    }
  ],
  "meshes": [
    {
      "name": "ズボン.001_Mesh_0002.rip_mesh0000.010-Mesh",
      "primitives": [
        {
          "attributes": {
            "POSITION": 0,
            "NORMAL": 1,
            "TEXCOORD_0": 2
          },
          "indices": 3,
          "material": 0,
          "mode": 4
        }
      ]
    },
    {
      "name": "シャツ.001_Mesh_0002.rip_mesh0000.011-Mesh",
      "primitives": [
        {
          "attributes": {
            "POSITION": 4,
            "NORMAL": 5,
            "TEXCOORD_0": 6
          },
          "indices": 7,
          "material": 1,
          "mode": 4
        }
      ]
    }
  ],
  "nodes": [
    {
      "name": "ズボン.001_Mesh_0002.rip_mesh0000.010",
      "mesh": 0
    },
    {
      "name": "シャツ.001_Mesh_0002.rip_mesh0000.011",
      "mesh": 1
    }
  ],
  "samplers": [
    {
      "wrapS": 10497,
      "wrapT": 10497
    }
  ],
  "scene": 0,
  "scenes": [
    {
      "nodes": [
        0,
        1
      ]
    }
  ],
  "textures": [
    {
      "name": "pants",
      "sampler": 0,
      "source": 0
    },
    {
      "name": "shirt",
      "sampler": 0,
      "source": 1
    }
  ]
}
